<?xml version="1.0" encoding="UTF-8"?>
<svg xmlns="http://www.w3.org/2000/svg" xmlns:xlink="http://www.w3.org/1999/xlink" width="47px" height="52px" viewBox="0 0 43 48" version="1.1">
<g id="surface1">
<path style=" stroke:none;fill-rule:nonzero;fill:rgb(100%,100%,100%);fill-opacity:1;" d="M 24.273438 7.054688 C 25.296875 11.292969 24.949219 15.023438 23.5 15.386719 C 22.050781 15.746094 20.042969 12.601562 19.019531 8.359375 C 17.996094 4.121094 18.34375 0.390625 19.792969 0.0273438 C 21.246094 -0.332031 23.25 2.8125 24.273438 7.054688 Z M 24.273438 7.054688 "/>
<path style=" stroke:none;fill-rule:nonzero;fill:rgb(100%,100%,100%);fill-opacity:1;" d="M 41.175781 10.699219 C 38.910156 8.296875 34.398438 8.949219 31.101562 12.152344 C 27.804688 15.359375 26.972656 19.90625 29.238281 22.308594 C 31.503906 24.710938 36.015625 24.058594 39.3125 20.855469 C 42.605469 17.648438 43.441406 13.101562 41.175781 10.699219 Z M 41.175781 10.699219 "/>
<path style=" stroke:none;fill-rule:nonzero;fill:rgb(100%,100%,100%);fill-opacity:1;" d="M 23.144531 47.488281 C 24.597656 47.125 24.890625 43.183594 23.804688 38.683594 C 22.71875 34.183594 20.664062 30.828125 19.210938 31.1875 C 17.761719 31.546875 17.464844 35.488281 18.554688 39.992188 C 19.640625 44.492188 21.695312 47.847656 23.144531 47.488281 Z M 23.144531 47.488281 "/>
<path style=" stroke:none;fill-rule:nonzero;fill:rgb(100%,100%,100%);fill-opacity:1;" d="M 8.359375 12.898438 C 12.546875 14.132812 15.601562 16.296875 15.191406 17.734375 C 14.777344 19.171875 11.050781 19.335938 6.867188 18.101562 C 2.683594 16.867188 -0.375 14.703125 0.0390625 13.265625 C 0.449219 11.828125 4.175781 11.664062 8.359375 12.898438 Z M 8.359375 12.898438 "/>
<path style=" stroke:none;fill-rule:nonzero;fill:rgb(100%,100%,100%);fill-opacity:1;" d="M 35.519531 29.121094 C 39.960938 30.429688 43.226562 32.65625 42.8125 34.09375 C 42.402344 35.527344 38.464844 35.632812 34.023438 34.320312 C 29.585938 33.011719 26.316406 30.785156 26.730469 29.347656 C 27.144531 27.914062 31.078125 27.808594 35.519531 29.121094 Z M 35.519531 29.121094 "/>
<path style=" stroke:none;fill-rule:nonzero;fill:rgb(100%,100%,100%);fill-opacity:1;" d="M 13.070312 26.105469 C 12.03125 25.03125 8.628906 26.59375 5.46875 29.601562 C 2.304688 32.609375 0.585938 35.917969 1.625 36.996094 C 2.660156 38.070312 6.0625 36.503906 9.226562 33.496094 C 12.386719 30.492188 14.105469 27.179688 13.070312 26.105469 Z M 13.070312 26.105469 "/>
</g>
</svg>
